PathFileType	4	(X/Y/Z)	D:\TRACE\spotREDO_2-26-24\spot_Both_Motion_3_10-v60.trc
DataRate	CameraRate	NumFrames	NumMarkers	Units	OrigDataRate	OrigDataStartFrame	OrigNumFrames
100.00	100.00	      28	9	mm	100.00	1	      7000
Frame#	Time	front left toe			Front right toe			aft left toe			aft right toe			Arm			FL body			FR body			AL Body			AR Body			
		X1	Y1	Z1	X2	Y2	Z2	X3	Y3	Z3	X4	Y4	Z4	X5	Y5	Z5	X6	Y6	Z6	X7	Y7	Z7	X8	Y8	Z8	X9	Y9	Z9	

1	0.000	-284.40494	72.11850	-218.85353	231.54852	67.25046	-214.41385	-284.17981	-38.18132	382.17780	223.03404	-35.14455	388.93460	-10.94779	948.56525	-359.39838	-97.46439	622.17987	-296.82986	58.54470	624.83704	-298.31226	-94.33121	473.42703	574.63318	52.56880	465.22855	574.51495	
2	0.010	-284.33804	72.14920	-218.80690	231.50394	67.17125	-214.42618	-284.17059	-38.14984	382.17740	223.03925	-35.18633	389.01047	-10.76198	949.14734	-360.17303	-96.97435	622.45111	-295.33325	58.90131	625.03949	-296.81082	-94.02719	473.48700	576.16327	53.05684	465.11557	575.88806	
3	0.020	-284.40244	72.14376	-218.77219	231.51363	67.12744	-214.38312	-284.30331	-38.04907	382.23083	223.03506	-35.21676	389.03622	-10.61791	949.51556	-360.57748	-96.60902	622.76794	-293.76578	59.37494	625.28107	-295.22031	-93.45255	473.57526	577.70197	53.52470	465.51947	578.28845	
4	0.030	-284.32669	72.12541	-218.60783	231.62581	67.14895	-214.38353	-284.27362	-38.05335	382.26157	223.08452	-35.22456	389.11841	-10.57358	949.96851	-361.10068	-96.35023	623.04150	-292.13150	59.73464	625.38599	-293.48633	-92.91383	473.59570	579.39111	54.06217	465.43262	579.82410	
5	0.040	-284.26813	72.11208	-218.55368	231.50665	67.10686	-214.35458	-284.31677	-37.98322	382.32339	223.04955	-35.26936	389.14447	-10.31137	950.49316	-361.71490	-95.62503	623.10455	-290.43134	60.26605	625.70764	-292.14792	-92.50375	473.58798	580.97211	54.42907	465.34540	581.29974	
6	0.050	-284.22672	72.07994	-218.36485	231.57884	67.08837	-214.34541	-284.26062	-38.04457	382.35468	223.10233	-35.30005	389.21515	-10.44132	951.00543	-362.42429	-95.31762	623.44562	-288.85147	60.64884	625.65692	-290.26550	-92.06780	473.62442	582.62268	54.94344	465.41806	582.91895	
7	0.060	-284.28311	72.60365	-218.09825	231.90698	67.04929	-214.09285	-284.18942	-38.03784	382.70654	223.16039	-35.37058	389.45001	-10.66567	951.39362	-362.80865	-94.62830	623.64929	-287.11819	61.10038	626.06500	-288.66266	-91.51060	473.61359	584.30627	55.29714	465.32901	584.72095	
8	0.070	-282.52246	76.99586	-215.76459	232.48051	66.62520	-213.72621	-283.97092	-38.20161	382.70316	223.34560	-35.54961	389.67334	-11.07858	951.84741	-363.45923	-94.26737	623.65649	-285.36050	61.85738	626.28925	-286.87497	-91.34901	473.39401	585.81818	55.71495	465.23068	586.36298	
9	0.080	-279.41226	87.28074	-211.54597	232.70914	66.56761	-213.26991	-283.66068	-38.10658	382.84647	223.53285	-35.57851	389.70761	-11.49596	952.36670	-364.09958	-93.54251	623.51947	-284.10239	62.43771	626.56958	-285.24057	-91.34764	473.03696	587.21912	55.68350	465.52795	587.99609	
10	0.090	-277.47183	97.93114	-206.13269	232.55972	66.90303	-213.16043	-283.63342	-38.17513	382.79779	223.45859	-35.55642	389.69934	-12.61488	953.16968	-364.67444	-92.63868	623.40753	-283.05991	63.37596	626.91919	-283.87674	-91.30312	473.11142	588.43298	55.60396	465.75851	589.30127	
11	0.100	-278.48734	109.73936	-203.71474	232.58794	66.91660	-213.10544	-283.62860	-38.10542	382.85553	223.37306	-35.54759	389.81177	-13.32562	953.70795	-365.12067	-92.06331	622.95032	-281.66525	63.41972	626.97803	-282.58405	-91.35042	472.94485	589.55768	55.81478	466.11139	590.08704	
12	0.110	-279.02005	121.88819	-204.48875	232.50046	66.92854	-213.07535	-283.56448	-38.02600	382.97955	223.46405	-35.53429	389.84311	-13.90582	954.17041	-365.81854	-92.33337	622.83453	-280.60199	63.73531	627.11206	-281.14557	-91.29665	472.83997	590.91290	55.82101	466.54984	591.58197	
13	0.120	-278.47174	133.70944	-206.10579	232.59618	66.74533	-213.11720	-283.48758	-38.02349	382.97958	223.55824	-35.60241	389.95389	-14.41332	954.48315	-366.29471	-92.09712	622.87848	-279.24167	63.67492	627.40570	-279.97610	-91.35107	472.82700	592.18414	55.88548	466.46991	592.83429	
14	0.130	-275.24844	144.77119	-205.81049	232.55898	66.77433	-213.08932	-283.57471	-38.04932	383.00027	223.57933	-35.69832	390.02567	-14.91157	954.93793	-366.68768	-92.56020	622.80127	-277.87387	63.28001	627.62061	-278.63416	-91.50700	472.58331	593.34406	55.78608	466.37531	593.88513	
15	0.140	-272.84586	154.99442	-203.63930	233.61037	67.49181	-212.61626	-283.61032	-38.11554	383.06583	223.57605	-35.67655	390.05746	-15.09624	955.43896	-367.11520	-92.62829	622.82233	-276.99933	63.16814	627.84912	-277.56400	-92.01218	472.40027	594.37830	55.35067	466.50662	594.94189	
16	0.150	-270.57782	163.40488	-199.34827	232.51419	66.73138	-213.07719	-283.72238	-38.17958	383.13745	223.46173	-35.70517	390.15234	-15.55692	955.94922	-367.83127	-93.23894	622.90814	-275.77750	62.81634	627.93109	-276.47604	-92.39621	472.08188	595.32556	54.68048	466.22345	596.62311	
17	0.160	-268.67361	171.32312	-194.84396	232.44330	66.71085	-212.95213	-283.87167	-38.21144	383.19211	223.40901	-35.63741	390.21588	-15.66504	956.22809	-368.28506	-93.27476	622.90912	-275.00391	62.35238	627.97656	-275.51147	-92.78056	471.92682	596.29248	53.97861	466.05951	597.68860	
18	0.170	-268.01117	178.53062	-191.48741	232.47421	66.69917	-212.94984	-283.99066	-38.19209	383.19958	223.45111	-35.53779	390.31845	-15.89768	956.52869	-368.75488	-93.85297	622.79279	-274.07285	61.87568	628.08075	-274.70599	-93.89229	471.80933	597.06714	53.35115	466.21204	598.56592	
19	0.180	-267.17175	183.93880	-189.19917	232.41116	66.79840	-212.77869	-284.04898	-38.29424	383.25839	223.37891	-35.48057	390.30167	-16.32829	956.83594	-369.41718	-94.57163	622.79993	-273.34329	61.37848	628.15045	-273.49570	-94.40526	471.66470	597.97418	52.85910	465.98114	598.64331	
20	0.190	-265.64157	186.76942	-187.05846	232.25464	66.79887	-212.84738	-284.17230	-38.43528	383.32693	223.33072	-35.41387	390.29144	-16.79201	957.07703	-369.89999	-95.07613	622.88556	-272.37283	60.93109	628.20331	-272.70407	-95.07585	471.66586	598.79437	51.98634	465.92175	599.47620	
21	0.200	-263.54709	186.57613	-184.47467	232.20709	66.83707	-212.80536	-284.28595	-38.53521	383.40131	223.30519	-35.42076	390.31088	-17.07396	957.25256	-370.30862	-95.88685	622.95685	-271.69217	59.92589	628.45435	-271.98749	-96.04801	471.63489	599.64349	51.30095	466.27808	600.50037	
22	0.210	-260.48837	184.42476	-181.11635	232.09041	66.83546	-212.83003	-284.27875	-38.66122	383.45483	223.31836	-35.37129	390.36115	-17.94661	957.57874	-370.93747	-96.70498	623.00922	-270.91391	59.25679	628.55939	-271.23544	-96.59097	471.54254	600.29541	50.52751	466.21988	601.07495	
23	0.220	-257.93900	181.37619	-177.39688	232.03046	66.85378	-212.79570	-284.31427	-38.64589	383.34363	223.19872	-35.36682	390.37039	-18.63852	958.08112	-371.63501	-97.47861	622.93256	-270.18170	58.53865	628.74707	-270.41718	-97.81452	471.61523	601.04077	49.21824	466.38336	602.45190	
24	0.230	-256.19150	179.33783	-174.01752	232.15704	66.87402	-212.71399	-284.35223	-38.64730	383.34076	223.14819	-35.23050	390.36774	-18.90631	958.36133	-371.84979	-98.24506	622.77405	-269.60699	57.78209	628.90961	-269.77481	-98.59919	471.54547	601.47070	48.46577	466.67111	603.31543	
25	0.240	-253.75471	178.23561	-170.43832	232.16457	66.93198	-212.63162	-284.41766	-38.78901	383.32822	223.09027	-35.13755	390.42178	-19.28414	958.80914	-372.28214	-99.04304	622.56335	-269.04965	56.75795	629.09589	-269.13687	-99.76967	471.57806	602.16962	47.39656	467.06766	603.63623	
26	0.250	-252.11581	177.40353	-166.81783	231.94580	66.94273	-212.86516	-284.51016	-38.85585	383.43118	223.02927	-35.15925	390.43784	-19.70515	959.17230	-373.03564	-100.23952	622.61346	-268.77109	55.62120	629.31525	-268.75641	-100.60148	471.52597	602.60852	46.61578	467.14615	603.74481	
27	0.260	-250.71596	176.69525	-162.87492	231.65611	67.02773	-212.87753	-284.49759	-38.91885	383.50360	223.05389	-35.15696	390.44098	-19.83302	959.45807	-373.50391	-101.57113	622.40448	-268.11023	54.21782	629.34631	-268.38705	-101.56034	471.51505	602.95392	45.76354	467.31387	604.28503	
28	0.270	-248.49535	176.16930	-159.65883	231.52089	66.70245	-213.26204	-284.47058	-39.01648	383.56284	223.04379	-35.09502	390.45566	-19.99253	959.86981	-373.83118	-102.73712	622.44434	-267.74429	52.93474	629.36859	-268.15125	-102.58693	471.50717	603.42303	44.87649	467.23605	604.48248	
